<svg width="161" height="45" viewBox="0 0 161 45" fill="none" xmlns="http://www.w3.org/2000/svg">
<path d="M18.408 13.808C16.68 15.664 14.888 17.456 13.16 19.312L11.88 20.592C12.072 20.656 12.2 20.656 12.328 20.656C15.848 21.424 19.24 22.96 22.632 25.2C23.976 26.032 24.296 27.888 23.464 29.232C22.632 30.576 20.776 30.896 19.432 30.064C16.68 28.208 13.864 26.992 11.112 26.352C10.28 26.16 9.384 26.032 8.296 25.968C8.232 25.968 8.04 25.904 7.848 25.904H7.72C7.528 25.84 7.336 25.84 7.208 25.84C6.824 25.776 6.504 25.712 6.248 25.648C6.312 28.72 6.312 30.576 6.312 31.28V31.344V31.472V31.792V31.984V32.432V33.328C6.312 34.928 5.032 36.272 3.432 36.272C1.832 36.272 0.488 34.928 0.488 33.328V32.624V32.496C0.488 31.92 0.424 28.528 0.36 22.384V17.648C0.296 13.872 0.296 10.736 0.296 8.368C0.0400004 4.656 6.312 4.656 6.12 8.368C6.12 10.736 6.12 13.808 6.184 17.584V18.096C6.504 17.776 7.016 17.2 7.72 16.496L8.936 15.28C10.664 13.488 12.392 11.696 14.056 9.84C15.144 8.624 17 8.624 18.216 9.712C19.432 10.736 19.432 12.592 18.408 13.808ZM33.916 15.728V21.744V30.64V30.96V31.408V31.984C34.108 35.312 28.668 35.312 28.86 31.984V31.408V31.344V31.024V30.96V30.704V30.64V21.744V15.728C28.668 12.528 34.108 12.528 33.916 15.728ZM28.924 4.464V4.4V4.272C28.988 3.824 29.116 3.376 29.372 2.928C29.564 2.672 29.756 2.416 29.948 2.224C30.396 1.904 30.844 1.712 31.292 1.648C32.508 1.392 33.468 1.776 34.172 2.736C34.62 3.312 34.876 3.824 34.94 4.336C35.004 5.04 34.876 5.68 34.62 6.32C34.108 7.344 33.34 7.92 32.252 8.112C31.612 8.176 31.036 8.176 30.588 7.984C29.628 7.664 28.988 7.088 28.796 6.128C28.668 5.552 28.732 5.04 28.924 4.464ZM48.676 21.168C47.844 20.656 47.076 20.272 46.372 20.08C45.604 19.888 45.028 19.824 44.58 20.016C43.94 20.208 43.556 20.912 43.428 22.064C43.364 23.408 43.62 24.368 44.26 25.008C44.388 25.136 44.516 25.2 44.58 25.2C44.964 25.136 45.412 24.944 45.988 24.496C47.076 23.664 47.972 22.512 48.676 21.168ZM52.516 23.6C51.556 25.392 50.34 26.864 48.868 28.016C46.116 30.256 43.108 30.32 41.06 28.272C39.46 26.736 38.692 24.24 38.884 21.68C39.14 18.8 40.612 16.496 43.108 15.664C45.156 14.96 47.524 15.344 50.276 16.816C50.468 16.176 50.724 15.408 50.916 14.448C51.108 13.872 51.236 13.232 51.428 12.528C51.492 12.464 51.556 12.208 51.62 11.888L51.812 11.312C52.196 9.968 52.452 8.752 52.644 7.792C52.9 6.32 53.028 4.656 53.028 2.8C53.028 1.52 54.052 0.495998 55.268 0.495998C56.548 0.495998 57.572 1.52 57.572 2.8C57.572 4.72 57.508 8.752 57.316 14.896C57.252 16.816 57.252 18.352 57.188 19.568C57.124 23.216 57.06 26.224 57.06 28.592C57.06 29.872 56.036 30.896 54.756 30.896C53.476 30.896 52.452 29.872 52.452 28.592C52.452 27.12 52.452 25.456 52.516 23.6ZM67.818 27.632C69.418 27.44 71.082 26.736 72.938 25.52C75.114 24.048 76.522 22.448 77.162 20.656C77.802 18.736 77.29 16.752 75.69 14.64C74.218 12.784 72.234 11.632 69.738 11.312C69.482 14.192 69.226 16.624 69.034 18.672C68.714 21.936 68.266 24.944 67.818 27.632ZM66.794 5.552C67.114 5.36 67.498 5.296 67.946 5.296C73.258 5.296 77.354 7.216 80.298 11.056C83.242 14.832 84.01 18.608 82.666 22.512C81.642 25.584 79.466 28.208 76.202 30.384C73.322 32.304 70.506 33.328 67.754 33.456C66.026 33.584 64.618 33.264 63.53 32.432C62.058 31.28 61.482 29.68 61.866 27.632C62.378 24.752 62.826 21.552 63.21 18.032C63.466 15.728 63.786 12.464 64.106 8.24C64.17 6.768 65.322 5.744 66.794 5.552ZM92.041 15.728V21.744V30.64V30.96V31.408V31.984C92.233 35.312 86.793 35.312 86.985 31.984V31.408V31.344V31.024V30.96V30.704V30.64V21.744V15.728C86.793 12.528 92.233 12.528 92.041 15.728ZM87.049 4.464V4.4V4.272C87.113 3.824 87.241 3.376 87.497 2.928C87.689 2.672 87.881 2.416 88.073 2.224C88.521 1.904 88.969 1.712 89.417 1.648C90.633 1.392 91.593 1.776 92.297 2.736C92.745 3.312 93.001 3.824 93.065 4.336C93.129 5.04 93.001 5.68 92.745 6.32C92.233 7.344 91.465 7.92 90.377 8.112C89.737 8.176 89.161 8.176 88.713 7.984C87.753 7.664 87.113 7.088 86.921 6.128C86.793 5.552 86.857 5.04 87.049 4.464ZM109.745 17.2C108.785 15.984 107.889 15.28 106.929 14.96C105.969 14.768 105.137 14.96 104.305 15.664C103.345 16.496 102.705 17.584 102.385 19.056C102.065 20.592 102.321 22 103.089 23.28C103.217 23.472 103.345 23.664 103.473 23.728V23.792L103.537 23.856H103.601C104.113 23.792 104.817 23.28 105.777 22.32C107.057 21.04 108.401 19.312 109.745 17.2ZM110.321 27.376V27.248H110.385C110.449 26.672 110.513 25.904 110.577 25.072C110.257 25.456 109.873 25.84 109.553 26.16C107.825 27.888 106.097 28.848 104.497 29.104C102.001 29.552 100.017 28.528 98.481 26.032C97.009 23.536 96.561 20.912 97.137 18.032C97.649 15.344 98.865 13.168 100.849 11.568C103.089 9.648 105.585 9.072 108.337 9.84C109.809 10.224 111.153 10.992 112.433 12.208V12.016C112.689 10.736 113.777 9.776 115.057 9.776C115.249 9.776 115.377 9.776 115.505 9.84C116.785 10.032 117.745 11.184 117.745 12.464V12.912C116.337 21.36 115.633 26.608 115.633 28.656C115.633 30.128 114.481 31.344 112.945 31.344C111.473 31.344 110.321 30.128 110.321 28.656V28.016V27.952V27.632V27.376ZM132.818 19.568C130.642 20.464 128.978 22.256 127.89 25.008C126.93 27.248 126.418 29.872 126.354 32.752C126.29 34.096 125.202 35.12 123.922 35.12H123.794C122.514 35.056 121.426 33.968 121.426 32.688V32.56C121.49 31.024 121.362 29.04 121.106 26.608C120.978 25.712 120.85 24.56 120.658 23.216C120.21 20.464 119.954 18.608 119.89 17.648C119.826 16.304 120.786 15.088 122.13 15.024C123.474 14.832 124.626 15.856 124.818 17.2C124.882 17.904 124.946 18.8 125.138 19.824C126.674 17.52 128.658 15.92 131.09 14.96C134.61 13.488 137.746 15.536 137.746 19.376C137.746 20.72 136.594 21.808 135.25 21.808C133.97 21.808 132.882 20.848 132.818 19.568ZM159.975 19.312C157.927 23.024 156.583 26.608 156.007 30C155.751 31.536 155.559 33.328 155.495 35.312C155.431 36.656 155.431 38.832 155.431 41.776C155.559 44.976 150.311 44.976 150.503 41.776C150.503 38.768 150.503 36.592 150.567 35.12C150.631 32.88 150.823 30.896 151.143 29.168C151.143 29.104 151.143 28.976 151.207 28.912C150.759 28.848 150.311 28.656 149.991 28.336C148.647 27.12 147.751 26.416 147.367 26.096L146.727 25.584C146.279 25.2 146.023 24.944 145.831 24.816C144.871 23.984 143.655 22.96 142.247 21.744C141.223 20.912 141.095 19.312 141.927 18.288C142.887 17.2 144.423 17.136 145.447 17.968C146.855 19.184 148.071 20.208 149.031 21.04C149.223 21.168 149.479 21.424 149.927 21.744L150.567 22.32C150.951 22.64 151.591 23.152 152.487 23.92C153.191 21.68 154.279 19.376 155.623 16.88C156.327 15.664 157.799 15.28 159.015 15.984C160.231 16.56 160.679 18.096 159.975 19.312Z" fill="#1B989A"/>
</svg>
